<?xml version="1.0" encoding="iso-8859-1"?>
<!-- Generator: Adobe Illustrator 24.1.2, SVG Export Plug-In . SVG Version: 6.00 Build 0)  -->
<svg version="1.1" baseProfile="basic" id="Layer_1"
	 xmlns="http://www.w3.org/2000/svg" xmlns:xlink="http://www.w3.org/1999/xlink" x="0px" y="0px" viewBox="0 0 30 30"
	 xml:space="preserve">
<path style="fill:#9EE36B;" d="M24,5.5L15,2L6,5.5L2,15l4,9.5l9,3.5l9-3.5l4-9.5L24,5.5z M19,23.5h-8l-5-5V11l5-5h8l5,5v7.5L19,23.5
	z"/>
<polygon style="fill:#9EE36B;" points="14,16 11,13 9,15 14,20 16,18 21,13 19,11 "/>
<polygon style="fill:#65C543;" points="2,15 6,18.5 6,24.5 "/>
<polygon style="fill:#8AD752;" points="2,15 6,11 6,18.5 "/>
<polygon style="fill:#51B333;" points="6,24.5 11,23.5 15,28 "/>
<polygon style="fill:#51B333;" points="24,18.5 28,15 24,24.5 "/>
<polygon style="fill:#8AD752;" points="24,11 24,5.5 28,15 "/>
<polygon style="fill:#9EE36B;" points="2,15 6,5.5 6,11 "/>
<polygon style="fill:#51B333;" points="15,28 19,23.5 24,24.5 "/>
<polygon style="fill:#8AD752;" points="19,6 15,2 24,5.5 "/>
<polygon style="fill:#9EE36B;" points="6,5.5 15,2 11,6 "/>
<polygon style="fill:#65C543;" points="11,23.5 19,23.5 15,28 "/>
<polygon style="fill:#65C543;" points="19,6 24,5.5 24,11 "/>
<polygon style="fill:#65C543;" points="15,2 19,6 11,6 "/>
<polygon style="fill:#65C543;" points="24,18.5 19,23.5 24,24.5 "/>
<polygon style="fill:#65C543;" points="24,11 24,18.5 28,15 "/>
<polygon style="fill:#8AD752;" points="11,6 6,11 6,5.5 "/>
<polygon style="fill:#8AD752;" points="6,18.5 6,24.5 11,23.5 "/>
<polygon style="fill:#65C543;" points="11,13 16,18 9,15 "/>
<polygon style="fill:#51B333;" points="14,20 16,18 9,15 "/>
<polygon style="fill:#9EE36B;" points="14,16 19,11 16,18 "/>
<polygon style="fill:#51B333;" points="19,11 21,13 16,18 "/>
</svg>